<svg width="300" height="288" viewBox="0 0 300 288" fill="none" xmlns="http://www.w3.org/2000/svg">
<g filter="url(#filter0_d_147_2323)">
<rect width="300" height="288" rx="8" fill="white"/>
<path d="M20 50H280" stroke="#D4D4D4" stroke-width="0.5"/>
<path d="M24.74 32.12C26.78 32.12 28.244 31.076 28.496 29.012H26.936C26.768 30.224 25.928 30.824 24.74 30.824C23.156 30.824 22.232 29.684 22.232 27.752V27.656C22.232 25.736 23.216 24.56 24.728 24.56C25.964 24.56 26.6 25.148 26.78 26.288H28.4C28.208 24.272 26.684 23.288 24.716 23.288C22.328 23.288 20.552 25.088 20.552 27.668V27.764C20.552 30.404 22.052 32.12 24.74 32.12ZM32.5665 30.992C31.4625 30.992 30.8265 30.188 30.8265 28.904V28.808C30.8265 27.512 31.4865 26.732 32.5665 26.732C33.6465 26.732 34.2945 27.524 34.2945 28.82V28.904C34.2945 30.188 33.6465 30.992 32.5665 30.992ZM32.5545 32.12C34.4025 32.12 35.7825 30.848 35.7825 28.892V28.796C35.7825 26.876 34.4025 25.592 32.5665 25.592C30.7185 25.592 29.3385 26.888 29.3385 28.832V28.928C29.3385 30.836 30.7065 32.12 32.5545 32.12ZM39.1945 32.12C40.2145 32.12 40.8745 31.628 41.1865 31.016V32H42.6385V25.724H41.1865V29.456C41.1865 30.452 40.5025 30.956 39.7225 30.956C38.8825 30.956 38.4865 30.524 38.4865 29.576V25.724H37.0345V29.744C37.0345 31.412 37.9585 32.12 39.1945 32.12ZM44.3601 32H45.8121V28.736C45.8121 27.404 46.5801 26.996 47.8521 26.984V25.628C46.7961 25.64 46.2081 26.108 45.8121 26.9V25.724H44.3601V32ZM51.2776 32.12C52.8856 32.12 53.7856 31.388 53.7856 30.116C53.7856 28.784 52.9096 28.424 51.4336 28.196C50.4376 28.028 50.1376 27.848 50.1376 27.392C50.1376 26.948 50.5096 26.648 51.1336 26.648C51.8056 26.648 52.1296 26.912 52.2496 27.488H53.5936C53.4376 26.072 52.4176 25.592 51.1336 25.592C49.9576 25.592 48.7816 26.216 48.7816 27.476C48.7816 28.652 49.3936 29.12 51.0496 29.384C51.9736 29.54 52.3936 29.732 52.3936 30.248C52.3936 30.776 52.0456 31.052 51.2656 31.052C50.4136 31.052 50.0896 30.68 50.0176 30.044H48.6496C48.7096 31.376 49.6576 32.12 51.2776 32.12ZM57.8193 32.12C59.4273 32.12 60.4953 31.4 60.6993 30.08H59.2953C59.1873 30.692 58.7313 31.04 57.8553 31.04C56.7753 31.04 56.1753 30.368 56.1273 29.18H60.7233V28.76C60.7233 26.516 59.3193 25.592 57.7593 25.592C55.9713 25.592 54.6393 26.888 54.6393 28.832V28.928C54.6393 30.908 55.9713 32.12 57.8193 32.12ZM56.1513 28.208C56.2953 27.236 56.8833 26.648 57.7593 26.648C58.6593 26.648 59.2113 27.128 59.2833 28.208H56.1513ZM64.9996 32H70.5676V30.74H66.5956V28.232H69.6196V27.032H66.5956V24.68H70.3636V23.42H64.9996V32ZM73.3557 32H75.0477L77.3157 25.724H75.8877L74.2677 30.512L72.6237 25.724H71.0637L73.3557 32ZM79.9182 32.12C80.8782 32.12 81.4302 31.772 81.8382 31.232V32H83.2662V27.884C83.2662 26.168 82.1622 25.592 80.7582 25.592C79.3542 25.592 78.1902 26.204 78.0702 27.668H79.4742C79.5462 27.044 79.9182 26.684 80.6742 26.684C81.5262 26.684 81.8142 27.104 81.8142 27.944V28.268H81.0342C79.2342 28.268 77.8182 28.796 77.8182 30.26C77.8182 31.568 78.7662 32.12 79.9182 32.12ZM80.2662 31.076C79.5462 31.076 79.2582 30.728 79.2582 30.2C79.2582 29.432 79.9662 29.18 81.0702 29.18H81.8142V29.804C81.8142 30.608 81.1542 31.076 80.2662 31.076ZM84.9664 32H86.4184V22.82H84.9664V32ZM90.2882 32.12C91.3082 32.12 91.9682 31.628 92.2802 31.016V32H93.7322V25.724H92.2802V29.456C92.2802 30.452 91.5962 30.956 90.8162 30.956C89.9762 30.956 89.5802 30.524 89.5802 29.576V25.724H88.1282V29.744C88.1282 31.412 89.0522 32.12 90.2882 32.12ZM97.0978 32.12C98.0578 32.12 98.6098 31.772 99.0178 31.232V32H100.446V27.884C100.446 26.168 99.3418 25.592 97.9378 25.592C96.5338 25.592 95.3698 26.204 95.2498 27.668H96.6538C96.7258 27.044 97.0978 26.684 97.8538 26.684C98.7058 26.684 98.9938 27.104 98.9938 27.944V28.268H98.2138C96.4138 28.268 94.9978 28.796 94.9978 30.26C94.9978 31.568 95.9458 32.12 97.0978 32.12ZM97.4458 31.076C96.7258 31.076 96.4378 30.728 96.4378 30.2C96.4378 29.432 97.1458 29.18 98.2498 29.18H98.9938V29.804C98.9938 30.608 98.3338 31.076 97.4458 31.076ZM104.246 32.108C104.69 32.108 105.002 32.036 105.23 31.952V30.8C105.026 30.884 104.81 30.92 104.522 30.92C104.066 30.92 103.802 30.668 103.802 30.116V26.816H105.182V25.724H103.802V24.344H102.35V25.724H101.51V26.816H102.35V30.248C102.35 31.436 102.998 32.108 104.246 32.108ZM106.576 32H108.028V25.724H106.576V32ZM107.284 24.692C107.764 24.692 108.148 24.332 108.148 23.864C108.148 23.384 107.764 23.024 107.284 23.024C106.804 23.024 106.42 23.384 106.42 23.864C106.42 24.332 106.804 24.692 107.284 24.692ZM112.606 30.992C111.502 30.992 110.866 30.188 110.866 28.904V28.808C110.866 27.512 111.526 26.732 112.606 26.732C113.686 26.732 114.334 27.524 114.334 28.82V28.904C114.334 30.188 113.686 30.992 112.606 30.992ZM112.594 32.12C114.442 32.12 115.822 30.848 115.822 28.892V28.796C115.822 26.876 114.442 25.592 112.606 25.592C110.758 25.592 109.378 26.888 109.378 28.832V28.928C109.378 30.836 110.746 32.12 112.594 32.12ZM117.134 32H118.586V28.304C118.586 27.308 119.246 26.804 120.062 26.804C120.926 26.804 121.31 27.236 121.31 28.184V32H122.762V28.052C122.762 26.324 121.874 25.592 120.614 25.592C119.582 25.592 118.886 26.108 118.586 26.72V25.724H117.134V32ZM125.298 32.084C125.838 32.084 126.258 31.676 126.258 31.148C126.258 30.62 125.838 30.2 125.298 30.2C124.77 30.2 124.35 30.62 124.35 31.148C124.35 31.676 124.77 32.084 125.298 32.084ZM127.903 34.148H129.355V31.016C129.691 31.628 130.411 32.12 131.407 32.12C133.027 32.12 134.191 30.896 134.191 28.88V28.784C134.191 26.756 132.979 25.592 131.407 25.592C130.483 25.592 129.703 26.132 129.355 26.732V25.724H127.903V34.148ZM131.047 30.968C129.991 30.968 129.307 30.308 129.307 28.904V28.808C129.307 27.416 130.027 26.732 131.035 26.732C131.983 26.732 132.703 27.416 132.703 28.808V28.904C132.703 30.248 132.115 30.968 131.047 30.968ZM137.849 32.12C138.773 32.12 139.577 31.568 139.913 30.944V32H141.365V22.82H139.913V26.684C139.565 26.06 138.929 25.592 137.909 25.592C136.277 25.592 135.089 26.864 135.089 28.868V28.964C135.089 31.004 136.277 32.12 137.849 32.12ZM138.209 30.968C137.273 30.968 136.577 30.308 136.577 28.928V28.832C136.577 27.476 137.201 26.732 138.269 26.732C139.325 26.732 139.961 27.416 139.961 28.796V28.892C139.961 30.296 139.217 30.968 138.209 30.968ZM143.343 32H144.795V26.816H146.223V25.724H144.795V24.824C144.795 24.284 145.035 23.9 145.623 23.9C145.887 23.9 146.115 23.948 146.283 24.008V22.88C146.019 22.796 145.803 22.76 145.455 22.76C144.111 22.76 143.343 23.504 143.343 24.884V25.724H142.491V26.816H143.343V32Z" fill="#171717"/>
<rect x="85" y="91" width="131" height="8" rx="4" fill="#8AE0BB"/>
<rect x="38" y="70" width="224" height="8" rx="4" fill="#8AE0BB"/>
<path d="M20 131C20 124.373 25.3726 119 32 119H268C274.627 119 280 124.373 280 131V143H20V131Z" fill="#D3D8E1"/>
<path d="M20.25 142.25H279.75V227C279.75 233.489 274.489 238.75 268 238.75H32C25.5107 238.75 20.25 233.489 20.25 227V142.25Z" stroke="#D3D8E1" stroke-width="0.5"/>
<line x1="20" y1="166.75" x2="280" y2="166.75" stroke="#D3D8E1" stroke-width="0.5"/>
<line x1="83.75" y1="239" x2="83.75" y2="143" stroke="#D3D8E1" stroke-width="0.5"/>
<line x1="149.75" y1="239" x2="149.75" y2="143" stroke="#D3D8E1" stroke-width="0.5"/>
<line x1="215.75" y1="239" x2="215.75" y2="143" stroke="#D3D8E1" stroke-width="0.5"/>
<line x1="20" y1="190.75" x2="280" y2="190.75" stroke="#D3D8E1" stroke-width="0.5"/>
<line x1="20" y1="214.75" x2="280" y2="214.75" stroke="#D3D8E1" stroke-width="0.5"/>
<path d="M101 262H199.5" stroke="black" stroke-width="0.5"/>
</g>
<defs>
<filter id="filter0_d_147_2323" x="-40" y="-32" width="380" height="368" filterUnits="userSpaceOnUse" color-interpolation-filters="sRGB">
<feFlood flood-opacity="0" result="BackgroundImageFix"/>
<feColorMatrix in="SourceAlpha" type="matrix" values="0 0 0 0 0 0 0 0 0 0 0 0 0 0 0 0 0 0 127 0" result="hardAlpha"/>
<feOffset dy="8"/>
<feGaussianBlur stdDeviation="20"/>
<feComposite in2="hardAlpha" operator="out"/>
<feColorMatrix type="matrix" values="0 0 0 0 0.0196078 0 0 0 0 0.701961 0 0 0 0 0.407843 0 0 0 0.1 0"/>
<feBlend mode="normal" in2="BackgroundImageFix" result="effect1_dropShadow_147_2323"/>
<feBlend mode="normal" in="SourceGraphic" in2="effect1_dropShadow_147_2323" result="shape"/>
</filter>
</defs>
</svg>
