<svg width="300" height="288" viewBox="0 0 300 288" fill="none" xmlns="http://www.w3.org/2000/svg">
<g filter="url(#filter0_d_258_2321)">
<rect width="300" height="288" rx="8" fill="white"/>
<path d="M20 50H280" stroke="#D4D4D4" stroke-width="0.5"/>
<path d="M24.92 30.836C23.36 30.836 22.22 29.624 22.22 27.752V27.656C22.22 25.808 23.216 24.572 24.896 24.572C26.576 24.572 27.56 25.88 27.56 27.644V27.74C27.56 29.6 26.54 30.836 24.92 30.836ZM24.896 32.12C27.5 32.12 29.216 30.236 29.216 27.728V27.632C29.216 25.112 27.452 23.3 24.896 23.3C22.352 23.3 20.552 25.16 20.552 27.668V27.764C20.552 30.236 22.268 32.12 24.896 32.12ZM30.6374 32H32.0894V28.304C32.0894 27.308 32.7494 26.804 33.5654 26.804C34.4294 26.804 34.8134 27.236 34.8134 28.184V32H36.2654V28.052C36.2654 26.324 35.3774 25.592 34.1174 25.592C33.0854 25.592 32.3894 26.108 32.0894 26.72V25.724H30.6374V32ZM41.4422 32.12C43.0622 32.12 44.2262 30.896 44.2262 28.88V28.784C44.2262 26.756 43.0142 25.592 41.4422 25.592C40.5182 25.592 39.7382 26.132 39.3902 26.732V22.82H37.9382V32H39.3902V30.992C39.7262 31.628 40.4462 32.12 41.4422 32.12ZM41.0822 30.968C40.0262 30.968 39.3422 30.308 39.3422 28.904V28.808C39.3422 27.416 40.0622 26.732 41.0702 26.732C42.0182 26.732 42.7382 27.416 42.7382 28.808V28.904C42.7382 30.248 42.1502 30.968 41.0822 30.968ZM48.34 30.992C47.236 30.992 46.6 30.188 46.6 28.904V28.808C46.6 27.512 47.26 26.732 48.34 26.732C49.42 26.732 50.068 27.524 50.068 28.82V28.904C50.068 30.188 49.42 30.992 48.34 30.992ZM48.328 32.12C50.176 32.12 51.556 30.848 51.556 28.892V28.796C51.556 26.876 50.176 25.592 48.34 25.592C46.492 25.592 45.112 26.888 45.112 28.832V28.928C45.112 30.836 46.48 32.12 48.328 32.12ZM54.5119 32.12C55.4719 32.12 56.0239 31.772 56.4319 31.232V32H57.8599V27.884C57.8599 26.168 56.7559 25.592 55.3519 25.592C53.9479 25.592 52.7839 26.204 52.6639 27.668H54.0679C54.1399 27.044 54.5119 26.684 55.2679 26.684C56.1199 26.684 56.4079 27.104 56.4079 27.944V28.268H55.6279C53.8279 28.268 52.4119 28.796 52.4119 30.26C52.4119 31.568 53.3599 32.12 54.5119 32.12ZM54.8599 31.076C54.1399 31.076 53.8519 30.728 53.8519 30.2C53.8519 29.432 54.5599 29.18 55.6639 29.18H56.4079V29.804C56.4079 30.608 55.7479 31.076 54.8599 31.076ZM59.5242 32H60.9762V28.736C60.9762 27.404 61.7442 26.996 63.0162 26.984V25.628C61.9602 25.64 61.3722 26.108 60.9762 26.9V25.724H59.5242V32ZM66.5285 32.12C67.4525 32.12 68.2565 31.568 68.5925 30.944V32H70.0445V22.82H68.5925V26.684C68.2445 26.06 67.6085 25.592 66.5885 25.592C64.9565 25.592 63.7685 26.864 63.7685 28.868V28.964C63.7685 31.004 64.9565 32.12 66.5285 32.12ZM66.8885 30.968C65.9525 30.968 65.2565 30.308 65.2565 28.928V28.832C65.2565 27.476 65.8805 26.732 66.9485 26.732C68.0045 26.732 68.6405 27.416 68.6405 28.796V28.892C68.6405 30.296 67.8965 30.968 66.8885 30.968ZM71.8063 32H73.2583V25.724H71.8063V32ZM72.5143 24.692C72.9943 24.692 73.3783 24.332 73.3783 23.864C73.3783 23.384 72.9943 23.024 72.5143 23.024C72.0343 23.024 71.6503 23.384 71.6503 23.864C71.6503 24.332 72.0343 24.692 72.5143 24.692ZM75.0281 32H76.4801V28.304C76.4801 27.308 77.1401 26.804 77.9561 26.804C78.8201 26.804 79.2041 27.236 79.2041 28.184V32H80.6561V28.052C80.6561 26.324 79.7681 25.592 78.5081 25.592C77.4761 25.592 76.7801 26.108 76.4801 26.72V25.724H75.0281V32ZM85.0048 34.304C86.9488 34.304 88.1848 33.38 88.1968 31.532V25.724H86.7448V26.684C86.3848 26.06 85.7608 25.592 84.7288 25.592C83.1088 25.592 81.9088 26.912 81.9088 28.676V28.76C81.9088 30.572 83.1208 31.748 84.6928 31.748C85.6168 31.748 86.3968 31.184 86.7448 30.584V31.508C86.7448 32.636 86.1208 33.2 84.9928 33.2C84.0448 33.2 83.5648 32.84 83.4448 32.216H81.9808C82.1488 33.416 83.0368 34.304 85.0048 34.304ZM85.0528 30.632C84.1168 30.632 83.3968 29.912 83.3968 28.748V28.652C83.3968 27.512 84.0208 26.732 85.1008 26.732C86.1448 26.732 86.7928 27.44 86.7928 28.628V28.712C86.7928 29.912 86.0608 30.632 85.0528 30.632ZM92.902 32H94.498V28.736H95.698C97.534 28.736 98.842 27.932 98.842 26.12V26.072C98.842 24.272 97.582 23.42 95.662 23.42H92.902V32ZM94.498 27.584V24.656H95.662C96.682 24.656 97.282 25.052 97.282 26.072V26.12C97.282 27.068 96.718 27.584 95.662 27.584H94.498ZM100.094 32H101.546V28.736C101.546 27.404 102.314 26.996 103.586 26.984V25.628C102.53 25.64 101.942 26.108 101.546 26.9V25.724H100.094V32ZM107.555 30.992C106.451 30.992 105.815 30.188 105.815 28.904V28.808C105.815 27.512 106.475 26.732 107.555 26.732C108.635 26.732 109.283 27.524 109.283 28.82V28.904C109.283 30.188 108.635 30.992 107.555 30.992ZM107.543 32.12C109.391 32.12 110.771 30.848 110.771 28.892V28.796C110.771 26.876 109.391 25.592 107.555 25.592C105.707 25.592 104.327 26.888 104.327 28.832V28.928C104.327 30.836 105.695 32.12 107.543 32.12ZM114.831 32.12C116.535 32.12 117.627 31.1 117.735 29.66H116.403C116.319 30.548 115.659 31.004 114.891 31.004C113.823 31.004 113.151 30.284 113.151 28.916V28.82C113.151 27.524 113.859 26.756 114.855 26.756C115.623 26.756 116.175 27.104 116.295 27.944H117.699C117.531 26.216 116.223 25.592 114.831 25.592C113.079 25.592 111.663 26.852 111.663 28.844V28.94C111.663 30.944 113.031 32.12 114.831 32.12ZM121.745 32.12C123.353 32.12 124.421 31.4 124.625 30.08H123.221C123.113 30.692 122.657 31.04 121.781 31.04C120.701 31.04 120.101 30.368 120.053 29.18H124.649V28.76C124.649 26.516 123.245 25.592 121.685 25.592C119.897 25.592 118.565 26.888 118.565 28.832V28.928C118.565 30.908 119.897 32.12 121.745 32.12ZM120.077 28.208C120.221 27.236 120.809 26.648 121.685 26.648C122.585 26.648 123.137 27.128 123.209 28.208H120.077ZM128.153 32.12C129.761 32.12 130.661 31.388 130.661 30.116C130.661 28.784 129.785 28.424 128.309 28.196C127.313 28.028 127.013 27.848 127.013 27.392C127.013 26.948 127.385 26.648 128.009 26.648C128.681 26.648 129.005 26.912 129.125 27.488H130.469C130.313 26.072 129.293 25.592 128.009 25.592C126.833 25.592 125.657 26.216 125.657 27.476C125.657 28.652 126.269 29.12 127.925 29.384C128.849 29.54 129.269 29.732 129.269 30.248C129.269 30.776 128.921 31.052 128.141 31.052C127.289 31.052 126.965 30.68 126.893 30.044H125.525C125.585 31.376 126.533 32.12 128.153 32.12ZM134.082 32.12C135.69 32.12 136.59 31.388 136.59 30.116C136.59 28.784 135.714 28.424 134.238 28.196C133.242 28.028 132.942 27.848 132.942 27.392C132.942 26.948 133.314 26.648 133.938 26.648C134.61 26.648 134.934 26.912 135.054 27.488H136.398C136.242 26.072 135.222 25.592 133.938 25.592C132.762 25.592 131.586 26.216 131.586 27.476C131.586 28.652 132.198 29.12 133.854 29.384C134.778 29.54 135.198 29.732 135.198 30.248C135.198 30.776 134.85 31.052 134.07 31.052C133.218 31.052 132.894 30.68 132.822 30.044H131.454C131.514 31.376 132.462 32.12 134.082 32.12ZM143.759 32.12C145.655 32.12 146.915 30.956 146.915 29.468C146.915 27.752 145.871 27.176 143.855 26.9C142.367 26.684 142.079 26.336 142.079 25.64C142.079 24.98 142.583 24.512 143.555 24.512C144.539 24.512 145.055 24.896 145.211 25.796H146.675C146.507 24.152 145.403 23.312 143.555 23.312C141.767 23.312 140.567 24.368 140.567 25.772C140.567 27.38 141.539 28.004 143.591 28.28C144.983 28.508 145.379 28.808 145.379 29.6C145.379 30.392 144.707 30.92 143.759 30.92C142.307 30.92 141.959 30.2 141.851 29.336H140.315C140.435 30.956 141.419 32.12 143.759 32.12ZM150.382 32.12C151.402 32.12 152.062 31.628 152.374 31.016V32H153.826V25.724H152.374V29.456C152.374 30.452 151.69 30.956 150.91 30.956C150.07 30.956 149.674 30.524 149.674 29.576V25.724H148.222V29.744C148.222 31.412 149.146 32.12 150.382 32.12ZM155.548 32H157V28.736C157 27.404 157.768 26.996 159.04 26.984V25.628C157.984 25.64 157.396 26.108 157 26.9V25.724H155.548V32ZM162.02 32H163.712L165.98 25.724H164.552L162.932 30.512L161.288 25.724H159.728L162.02 32ZM169.581 32.12C171.189 32.12 172.257 31.4 172.461 30.08H171.057C170.949 30.692 170.493 31.04 169.617 31.04C168.537 31.04 167.937 30.368 167.889 29.18H172.485V28.76C172.485 26.516 171.081 25.592 169.521 25.592C167.733 25.592 166.401 26.888 166.401 28.832V28.928C166.401 30.908 167.733 32.12 169.581 32.12ZM167.913 28.208C168.057 27.236 168.645 26.648 169.521 26.648C170.421 26.648 170.973 27.128 171.045 28.208H167.913ZM174.302 34.148H175.73L179.15 25.724H177.734L176.198 29.768L174.53 25.724H172.958L175.442 31.364L174.302 34.148ZM180.201 32.084C180.741 32.084 181.161 31.676 181.161 31.148C181.161 30.62 180.741 30.2 180.201 30.2C179.673 30.2 179.253 30.62 179.253 31.148C179.253 31.676 179.673 32.084 180.201 32.084ZM182.805 34.148H184.257V31.016C184.593 31.628 185.313 32.12 186.309 32.12C187.929 32.12 189.093 30.896 189.093 28.88V28.784C189.093 26.756 187.881 25.592 186.309 25.592C185.385 25.592 184.605 26.132 184.257 26.732V25.724H182.805V34.148ZM185.949 30.968C184.893 30.968 184.209 30.308 184.209 28.904V28.808C184.209 27.416 184.929 26.732 185.937 26.732C186.885 26.732 187.605 27.416 187.605 28.808V28.904C187.605 30.248 187.017 30.968 185.949 30.968ZM192.751 32.12C193.675 32.12 194.479 31.568 194.815 30.944V32H196.267V22.82H194.815V26.684C194.467 26.06 193.831 25.592 192.811 25.592C191.179 25.592 189.991 26.864 189.991 28.868V28.964C189.991 31.004 191.179 32.12 192.751 32.12ZM193.111 30.968C192.175 30.968 191.479 30.308 191.479 28.928V28.832C191.479 27.476 192.103 26.732 193.171 26.732C194.227 26.732 194.863 27.416 194.863 28.796V28.892C194.863 30.296 194.119 30.968 193.111 30.968ZM198.245 32H199.697V26.816H201.125V25.724H199.697V24.824C199.697 24.284 199.937 23.9 200.525 23.9C200.789 23.9 201.017 23.948 201.185 24.008V22.88C200.921 22.796 200.705 22.76 200.357 22.76C199.013 22.76 198.245 23.504 198.245 24.884V25.724H197.393V26.816H198.245V32Z" fill="#171717"/>
<rect x="20" y="70" width="260" height="8" rx="4" fill="#F0F2F5"/>
<rect x="20" y="91" width="260" height="8" rx="4" fill="#F0F2F5"/>
<rect x="20" y="112" width="260" height="8" rx="4" fill="#F0F2F5"/>
<rect x="20" y="145" width="69" height="8" rx="4" fill="#F0F2F5"/>
<rect x="176" y="145" width="104" height="8" rx="4" fill="#F0F2F5"/>
<rect x="20" y="166" width="260" height="8" rx="4" fill="#F0F2F5"/>
<rect x="20" y="187" width="130" height="8" rx="4" fill="#F0F2F5"/>
<rect x="20" y="208" width="171" height="8" rx="4" fill="#F0F2F5"/>
<rect x="20" y="229" width="87" height="8" rx="4" fill="#F0F2F5"/>
<path d="M181 262H279.5" stroke="black" stroke-width="0.5"/>
<path d="M207 243.86C207 243.86 226.807 231.394 229.669 222.132C230.929 218.057 227.641 216.997 225.688 218.948C217.862 226.763 230.59 253.964 218.795 253.375C215.85 253.228 215.846 249.255 215.846 249.255C215.846 240.425 226.599 232.163 230.929 235.921C233.526 238.175 230.59 243.775 233.538 243.86C236.487 243.944 236.926 236.768 239.344 237.608C241.149 238.235 239.209 241.644 240.063 243.349C242.219 247.655 253 233.302 253 233.302" stroke="#171717" stroke-width="1.4" stroke-linecap="round" stroke-linejoin="round"/>
<path d="M228.23 252.205C231.376 250.537 240.497 247.578 251.82 249.078" stroke="#171717" stroke-width="1.4" stroke-linecap="round" stroke-linejoin="round"/>
<rect x="95.5" y="138.5" width="74" height="18" rx="0.5" fill="#FFE8F3" stroke="#FF74B9"/>
<path d="M184 246L194.5 256.5" stroke="black" stroke-width="0.5"/>
<path d="M194.5 246L184 256.5" stroke="black" stroke-width="0.5"/>
<g filter="url(#filter1_d_258_2321)">
<path fill-rule="evenodd" clip-rule="evenodd" d="M96 87C93.7909 87 92 88.7909 92 91V122C92 124.209 93.7909 126 96 126H128L132.243 130.243L136.485 126H169C171.209 126 173 124.209 173 122V91C173 88.7909 171.209 87 169 87H96Z" fill="#3661E3"/>
<path d="M114.352 93.9375V93.1818H118.855V93.9375H117.04V99H116.165V93.9375H114.352ZM121.03 99.0881C120.6 99.0881 120.23 98.9962 119.919 98.8125C119.61 98.6269 119.372 98.3665 119.203 98.0312C119.036 97.6941 118.953 97.2992 118.953 96.8466C118.953 96.3996 119.036 96.0057 119.203 95.6648C119.372 95.3239 119.607 95.0578 119.908 94.8665C120.211 94.6752 120.565 94.5795 120.97 94.5795C121.216 94.5795 121.455 94.6203 121.686 94.7017C121.917 94.7831 122.125 94.911 122.308 95.0852C122.492 95.2595 122.637 95.4858 122.743 95.7642C122.849 96.0407 122.902 96.3769 122.902 96.7727V97.0739H119.433V96.4375H122.07C122.07 96.214 122.024 96.0161 121.933 95.8438C121.842 95.6695 121.714 95.5322 121.55 95.4318C121.387 95.3314 121.196 95.2812 120.976 95.2812C120.737 95.2812 120.529 95.34 120.351 95.4574C120.175 95.5729 120.038 95.7244 119.942 95.9119C119.847 96.0975 119.8 96.2992 119.8 96.517V97.0142C119.8 97.3059 119.851 97.554 119.953 97.7585C120.057 97.9631 120.202 98.1193 120.388 98.2273C120.573 98.3333 120.79 98.3864 121.038 98.3864C121.199 98.3864 121.346 98.3636 121.479 98.3182C121.611 98.2708 121.726 98.2008 121.822 98.108C121.919 98.0152 121.993 97.9006 122.044 97.7642L122.848 97.9091C122.784 98.1458 122.668 98.3532 122.501 98.5312C122.337 98.7074 122.129 98.8447 121.879 98.9432C121.631 99.0398 121.348 99.0881 121.03 99.0881ZM124.413 94.6364L125.376 96.3352L126.348 94.6364H127.277L125.916 96.8182L127.288 99H126.359L125.376 97.3693L124.396 99H123.464L124.822 96.8182L123.482 94.6364H124.413ZM130.186 94.6364V95.3182H127.803V94.6364H130.186ZM128.442 93.5909H129.291V97.7188C129.291 97.8835 129.316 98.0076 129.365 98.0909C129.414 98.1723 129.478 98.2282 129.555 98.2585C129.635 98.2869 129.721 98.3011 129.814 98.3011C129.882 98.3011 129.942 98.2964 129.993 98.2869C130.044 98.2775 130.084 98.2699 130.112 98.2642L130.266 98.9659C130.216 98.9848 130.146 99.0038 130.055 99.0227C129.964 99.0436 129.851 99.0549 129.714 99.0568C129.491 99.0606 129.283 99.0208 129.089 98.9375C128.896 98.8542 128.74 98.7254 128.621 98.5511C128.501 98.3769 128.442 98.1581 128.442 97.8949V93.5909ZM135.32 94.6364V95.3182H132.854V94.6364H135.32ZM133.53 99V94.1307C133.53 93.858 133.589 93.6316 133.709 93.4517C133.828 93.2699 133.986 93.1345 134.183 93.0455C134.38 92.9545 134.594 92.9091 134.825 92.9091C134.996 92.9091 135.142 92.9233 135.263 92.9517C135.384 92.9782 135.474 93.0028 135.533 93.0256L135.334 93.7131C135.294 93.7017 135.243 93.6884 135.18 93.6733C135.118 93.6562 135.042 93.6477 134.953 93.6477C134.747 93.6477 134.599 93.6989 134.51 93.8011C134.423 93.9034 134.379 94.0511 134.379 94.2443V99H133.53ZM136.196 99V94.6364H137.045V99H136.196ZM136.625 93.9631C136.477 93.9631 136.35 93.9138 136.244 93.8153C136.14 93.715 136.088 93.5956 136.088 93.4574C136.088 93.3172 136.14 93.1979 136.244 93.0994C136.35 92.9991 136.477 92.9489 136.625 92.9489C136.773 92.9489 136.899 92.9991 137.003 93.0994C137.109 93.1979 137.162 93.3172 137.162 93.4574C137.162 93.5956 137.109 93.715 137.003 93.8153C136.899 93.9138 136.773 93.9631 136.625 93.9631ZM140.069 99.0881C139.639 99.0881 139.269 98.9962 138.958 98.8125C138.649 98.6269 138.411 98.3665 138.242 98.0312C138.076 97.6941 137.992 97.2992 137.992 96.8466C137.992 96.3996 138.076 96.0057 138.242 95.6648C138.411 95.3239 138.646 95.0578 138.947 94.8665C139.25 94.6752 139.604 94.5795 140.009 94.5795C140.255 94.5795 140.494 94.6203 140.725 94.7017C140.956 94.7831 141.164 94.911 141.347 95.0852C141.531 95.2595 141.676 95.4858 141.782 95.7642C141.888 96.0407 141.941 96.3769 141.941 96.7727V97.0739H138.472V96.4375H141.109C141.109 96.214 141.063 96.0161 140.972 95.8438C140.881 95.6695 140.754 95.5322 140.589 95.4318C140.426 95.3314 140.235 95.2812 140.015 95.2812C139.776 95.2812 139.568 95.34 139.39 95.4574C139.214 95.5729 139.077 95.7244 138.981 95.9119C138.886 96.0975 138.839 96.2992 138.839 96.517V97.0142C138.839 97.3059 138.89 97.554 138.992 97.7585C139.096 97.9631 139.241 98.1193 139.427 98.2273C139.612 98.3333 139.829 98.3864 140.077 98.3864C140.238 98.3864 140.385 98.3636 140.518 98.3182C140.65 98.2708 140.765 98.2008 140.862 98.108C140.958 98.0152 141.032 97.9006 141.083 97.7642L141.887 97.9091C141.823 98.1458 141.707 98.3532 141.54 98.5312C141.376 98.7074 141.168 98.8447 140.918 98.9432C140.67 99.0398 140.387 99.0881 140.069 99.0881ZM143.733 93.1818V99H142.884V93.1818H143.733ZM146.509 99.0852C146.157 99.0852 145.843 98.9953 145.566 98.8153C145.291 98.6335 145.076 98.375 144.918 98.0398C144.763 97.7027 144.685 97.2983 144.685 96.8267C144.685 96.3551 144.764 95.9517 144.921 95.6165C145.08 95.2812 145.298 95.0246 145.575 94.8466C145.851 94.6686 146.165 94.5795 146.515 94.5795C146.786 94.5795 147.004 94.625 147.168 94.7159C147.335 94.8049 147.464 94.9091 147.555 95.0284C147.647 95.1477 147.719 95.2528 147.771 95.3438H147.822V93.1818H148.671V99H147.842V98.321H147.771C147.719 98.4138 147.646 98.5199 147.549 98.6392C147.454 98.7585 147.324 98.8627 147.157 98.9517C146.99 99.0407 146.774 99.0852 146.509 99.0852ZM146.697 98.3608C146.941 98.3608 147.147 98.2964 147.316 98.1676C147.487 98.0369 147.615 97.8561 147.702 97.625C147.791 97.3939 147.836 97.125 147.836 96.8182C147.836 96.5152 147.792 96.25 147.705 96.0227C147.618 95.7955 147.49 95.6184 147.322 95.4915C147.153 95.3646 146.945 95.3011 146.697 95.3011C146.441 95.3011 146.228 95.3674 146.058 95.5C145.887 95.6326 145.758 95.8134 145.671 96.0426C145.586 96.2718 145.543 96.5303 145.543 96.8182C145.543 97.1098 145.587 97.3722 145.674 97.6051C145.761 97.8381 145.89 98.0227 146.06 98.1591C146.233 98.2936 146.445 98.3608 146.697 98.3608Z" fill="white"/>
<path d="M99 105L166 105" stroke="white" stroke-width="0.5"/>
<path fill-rule="evenodd" clip-rule="evenodd" d="M101.615 113C102.168 113 102.615 112.552 102.615 112C102.615 111.448 102.168 111 101.615 111C101.063 111 100.615 111.448 100.615 112C100.615 112.552 101.063 113 101.615 113ZM101.615 116C102.168 116 102.615 115.552 102.615 115C102.615 114.448 102.168 114 101.615 114C101.063 114 100.615 114.448 100.615 115C100.615 115.552 101.063 116 101.615 116ZM102.615 118C102.615 118.552 102.168 119 101.615 119C101.063 119 100.615 118.552 100.615 118C100.615 117.448 101.063 117 101.615 117C102.168 117 102.615 117.448 102.615 118ZM104.615 113C105.168 113 105.615 112.552 105.615 112C105.615 111.448 105.168 111 104.615 111C104.063 111 103.615 111.448 103.615 112C103.615 112.552 104.063 113 104.615 113ZM105.615 115C105.615 115.552 105.168 116 104.615 116C104.063 116 103.615 115.552 103.615 115C103.615 114.448 104.063 114 104.615 114C105.168 114 105.615 114.448 105.615 115ZM104.615 119C105.168 119 105.615 118.552 105.615 118C105.615 117.448 105.168 117 104.615 117C104.063 117 103.615 117.448 103.615 118C103.615 118.552 104.063 119 104.615 119Z" fill="white"/>
<rect x="111.615" y="110" width="22" height="10" rx="2" fill="white" fill-opacity="0.75"/>
<path d="M121.95 112.182V118H121.144L118.186 113.733H118.132V118H117.254V112.182H118.067L121.027 116.455H121.081V112.182H121.95ZM123.722 118H122.791L124.884 112.182H125.899L127.992 118H127.061L125.416 113.239H125.37L123.722 118ZM123.879 115.722H126.901V116.46H123.879V115.722Z" fill="#171717"/>
<path fill-rule="evenodd" clip-rule="evenodd" d="M148.115 119.5H143.115C142.563 119.5 142.115 119.053 142.115 118.5V114.5C142.115 113.947 142.563 113.5 143.115 113.5H148.115C148.668 113.5 149.115 113.947 149.115 114.5V118.5C149.115 119.053 148.668 119.5 148.115 119.5Z" stroke="white" stroke-linecap="round" stroke-linejoin="round"/>
<path d="M143.615 113.5V112.5V112.5C143.615 111.395 144.511 110.5 145.615 110.5V110.5C146.72 110.5 147.615 111.395 147.615 112.5V112.5V113.5" stroke="white" stroke-linecap="round" stroke-linejoin="round"/>
<path d="M147.115 115.5H144.115" stroke="white" stroke-linecap="round" stroke-linejoin="round"/>
<path d="M147.115 117.5H144.115" stroke="white" stroke-linecap="round" stroke-linejoin="round"/>
<path d="M163.901 112.5V118.375C163.901 118.997 163.404 119.5 162.804 119.5H159.177C158.576 119.5 158.099 118.997 158.099 118.375V112.5" stroke="white" stroke-linecap="round" stroke-linejoin="round"/>
<path d="M164.384 112.5L157.615 112.5" stroke="white" stroke-linecap="round" stroke-linejoin="round"/>
<path d="M160.033 110.5H161.967" stroke="white" stroke-linecap="round" stroke-linejoin="round"/>
<path d="M161.967 114.5L161.967 117.5" stroke="white" stroke-linecap="round" stroke-linejoin="round"/>
<path d="M160.033 117.5V114.5" stroke="white" stroke-linecap="round" stroke-linejoin="round"/>
</g>
</g>
<defs>
<filter id="filter0_d_258_2321" x="-40" y="-32" width="380" height="368" filterUnits="userSpaceOnUse" color-interpolation-filters="sRGB">
<feFlood flood-opacity="0" result="BackgroundImageFix"/>
<feColorMatrix in="SourceAlpha" type="matrix" values="0 0 0 0 0 0 0 0 0 0 0 0 0 0 0 0 0 0 127 0" result="hardAlpha"/>
<feOffset dy="8"/>
<feGaussianBlur stdDeviation="20"/>
<feComposite in2="hardAlpha" operator="out"/>
<feColorMatrix type="matrix" values="0 0 0 0 1 0 0 0 0 0.454902 0 0 0 0 0.72549 0 0 0 0.1 0"/>
<feBlend mode="normal" in2="BackgroundImageFix" result="effect1_dropShadow_258_2321"/>
<feBlend mode="normal" in="SourceGraphic" in2="effect1_dropShadow_258_2321" result="shape"/>
</filter>
<filter id="filter1_d_258_2321" x="82" y="81" width="101" height="63.2427" filterUnits="userSpaceOnUse" color-interpolation-filters="sRGB">
<feFlood flood-opacity="0" result="BackgroundImageFix"/>
<feColorMatrix in="SourceAlpha" type="matrix" values="0 0 0 0 0 0 0 0 0 0 0 0 0 0 0 0 0 0 127 0" result="hardAlpha"/>
<feOffset dy="4"/>
<feGaussianBlur stdDeviation="5"/>
<feComposite in2="hardAlpha" operator="out"/>
<feColorMatrix type="matrix" values="0 0 0 0 0.0470588 0 0 0 0 0.137255 0 0 0 0 0.447059 0 0 0 0.16 0"/>
<feBlend mode="normal" in2="BackgroundImageFix" result="effect1_dropShadow_258_2321"/>
<feBlend mode="normal" in="SourceGraphic" in2="effect1_dropShadow_258_2321" result="shape"/>
</filter>
</defs>
</svg>
