<svg width="186" height="44" viewBox="0 0 186 44" fill="none" xmlns="http://www.w3.org/2000/svg">
<circle cx="21.0437" cy="22" r="21.0437" fill="#6254B6"/>
<circle cx="47.3487" cy="22" r="21.0437" fill="#7F71D4"/>
<path fill-rule="evenodd" clip-rule="evenodd" d="M34.1962 38.4281C39.0071 34.5715 42.0875 28.6455 42.0875 21.9999C42.0875 15.3544 39.0071 9.42836 34.1962 5.57178C29.3854 9.42836 26.3049 15.3544 26.3049 21.9999C26.3049 28.6455 29.3854 34.5715 34.1962 38.4281Z" fill="#E4E1FA"/>
<path d="M88.9335 30.5732H82.9996V13.8339H88.9826C90.6663 13.8339 92.1157 14.169 93.3309 14.8392C94.546 15.504 95.4805 16.4603 96.1344 17.7081C96.7937 18.956 97.1234 20.449 97.1234 22.1872C97.1234 23.9309 96.7937 25.4294 96.1344 26.6827C95.4805 27.9359 94.5405 28.8977 93.3145 29.5679C92.0939 30.2381 90.6336 30.5732 88.9335 30.5732ZM86.5387 27.5409H88.7864C89.8326 27.5409 90.7126 27.3556 91.4264 26.9851C92.1457 26.6091 92.6852 26.0288 93.0448 25.2441C93.4099 24.454 93.5924 23.435 93.5924 22.1872C93.5924 20.9503 93.4099 19.9395 93.0448 19.1549C92.6852 18.3702 92.1484 17.7926 91.4346 17.4221C90.7208 17.0515 89.8408 16.8663 88.7946 16.8663H86.5387V27.5409ZM105.352 30.8184C104.082 30.8184 102.984 30.5487 102.058 30.0093C101.137 29.4644 100.426 28.707 99.9248 27.737C99.4235 26.7617 99.1729 25.631 99.1729 24.345C99.1729 23.0482 99.4235 21.9148 99.9248 20.9449C100.426 19.9695 101.137 19.2121 102.058 18.6726C102.984 18.1277 104.082 17.8553 105.352 17.8553C106.622 17.8553 107.717 18.1277 108.638 18.6726C109.564 19.2121 110.278 19.9695 110.779 20.9449C111.281 21.9148 111.531 23.0482 111.531 24.345C111.531 25.631 111.281 26.7617 110.779 27.737C110.278 28.707 109.564 29.4644 108.638 30.0093C107.717 30.5487 106.622 30.8184 105.352 30.8184ZM105.368 28.1212C105.946 28.1212 106.428 27.9577 106.815 27.6308C107.202 27.2984 107.494 26.8461 107.69 26.274C107.891 25.7018 107.992 25.0507 107.992 24.3205C107.992 23.5903 107.891 22.9392 107.69 22.367C107.494 21.7949 107.202 21.3426 106.815 21.0102C106.428 20.6779 105.946 20.5117 105.368 20.5117C104.785 20.5117 104.295 20.6779 103.897 21.0102C103.505 21.3426 103.208 21.7949 103.006 22.367C102.81 22.9392 102.712 23.5903 102.712 24.3205C102.712 25.0507 102.81 25.7018 103.006 26.274C103.208 26.8461 103.505 27.2984 103.897 27.6308C104.295 27.9577 104.785 28.1212 105.368 28.1212ZM119.468 30.8184C118.182 30.8184 117.076 30.546 116.149 30.0011C115.228 29.4507 114.52 28.6879 114.024 27.7125C113.534 26.7371 113.289 25.6146 113.289 24.345C113.289 23.0591 113.536 21.9311 114.032 20.9612C114.534 19.9858 115.245 19.2257 116.166 18.6808C117.086 18.1304 118.182 17.8553 119.451 17.8553C120.547 17.8553 121.506 18.0542 122.328 18.4519C123.151 18.8497 123.802 19.4082 124.282 20.1275C124.761 20.8468 125.026 21.6914 125.075 22.6613H121.789C121.696 22.0347 121.451 21.5306 121.053 21.1492C120.661 20.7623 120.146 20.5689 119.509 20.5689C118.969 20.5689 118.498 20.716 118.095 21.0102C117.697 21.299 117.386 21.7213 117.163 22.2771C116.939 22.8329 116.828 23.5059 116.828 24.296C116.828 25.097 116.937 25.7781 117.155 26.3394C117.378 26.9006 117.691 27.3284 118.095 27.6226C118.498 27.9169 118.969 28.064 119.509 28.064C119.906 28.064 120.263 27.9822 120.579 27.8188C120.901 27.6553 121.165 27.4183 121.372 27.1077C121.585 26.7916 121.724 26.4129 121.789 25.9716H125.075C125.02 26.9306 124.759 27.7752 124.29 28.5053C123.827 29.2301 123.187 29.7968 122.369 30.2054C121.552 30.6141 120.585 30.8184 119.468 30.8184ZM130.394 13.8339L134.44 26.5519H134.595L138.649 13.8339H142.572L136.802 30.5732H132.241L126.462 13.8339H130.394ZM146.708 30.8103C145.907 30.8103 145.193 30.6713 144.566 30.3934C143.94 30.1101 143.444 29.6932 143.079 29.1429C142.719 28.5871 142.539 27.8951 142.539 27.0668C142.539 26.3693 142.668 25.7836 142.924 25.3095C143.18 24.8354 143.528 24.454 143.97 24.1652C144.411 23.8764 144.912 23.6585 145.474 23.5113C146.04 23.3642 146.634 23.2607 147.256 23.2007C147.986 23.1245 148.574 23.0536 149.021 22.9882C149.468 22.9174 149.792 22.8139 149.994 22.6776C150.195 22.5414 150.296 22.3398 150.296 22.0728V22.0238C150.296 21.5061 150.133 21.1056 149.806 20.8223C149.484 20.5389 149.026 20.3972 148.433 20.3972C147.806 20.3972 147.307 20.5362 146.937 20.8141C146.566 21.0865 146.321 21.4298 146.201 21.8439L142.981 21.5824C143.144 20.8195 143.466 20.1602 143.945 19.6044C144.425 19.0432 145.043 18.6127 145.801 18.313C146.564 18.0078 147.446 17.8553 148.449 17.8553C149.146 17.8553 149.814 17.937 150.451 18.1005C151.094 18.2639 151.664 18.5173 152.16 18.8606C152.661 19.2039 153.056 19.6453 153.345 20.1847C153.634 20.7187 153.778 21.359 153.778 22.1055V30.5732H150.476V28.8323H150.378C150.176 29.2246 149.906 29.5706 149.569 29.8703C149.231 30.1646 148.825 30.3961 148.351 30.5651C147.877 30.7285 147.329 30.8103 146.708 30.8103ZM147.705 28.4073C148.217 28.4073 148.67 28.3065 149.062 28.1048C149.454 27.8978 149.762 27.6199 149.986 27.2711C150.209 26.9224 150.321 26.5274 150.321 26.086V24.7537C150.212 24.8245 150.062 24.8899 149.871 24.9499C149.686 25.0044 149.476 25.0561 149.242 25.1052C149.007 25.1488 148.773 25.1896 148.539 25.2278C148.304 25.2605 148.092 25.2904 147.901 25.3177C147.493 25.3776 147.136 25.473 146.831 25.6038C146.525 25.7345 146.288 25.9116 146.119 26.135C145.951 26.353 145.866 26.6254 145.866 26.9524C145.866 27.4264 146.038 27.7888 146.381 28.0395C146.73 28.2847 147.171 28.4073 147.705 28.4073ZM164.53 25.2278V18.0187H168.012V30.5732H164.669V28.2928H164.538C164.255 29.0284 163.784 29.6197 163.124 30.0665C162.471 30.5133 161.672 30.7367 160.73 30.7367C159.89 30.7367 159.152 30.546 158.515 30.1646C157.877 29.7831 157.378 29.241 157.019 28.538C156.665 27.8351 156.485 26.9932 156.479 26.0124V18.0187H159.961V25.3912C159.967 26.1323 160.166 26.7181 160.558 27.1485C160.95 27.579 161.476 27.7943 162.135 27.7943C162.555 27.7943 162.947 27.6989 163.312 27.5082C163.677 27.312 163.972 27.0232 164.195 26.6418C164.424 26.2604 164.536 25.789 164.53 25.2278ZM174.279 13.8339V30.5732H170.797V13.8339H174.279ZM183.746 18.0187V20.6343H176.186V18.0187H183.746ZM177.902 15.0109H181.384V26.7153C181.384 27.0368 181.433 27.2875 181.531 27.4673C181.629 27.6417 181.765 27.7643 181.94 27.8351C182.12 27.906 182.327 27.9414 182.561 27.9414C182.724 27.9414 182.888 27.9278 183.051 27.9005C183.215 27.8678 183.34 27.8433 183.427 27.8269L183.975 30.4179C183.801 30.4724 183.555 30.5351 183.239 30.6059C182.923 30.6822 182.539 30.7285 182.087 30.7449C181.248 30.7776 180.512 30.6659 179.88 30.4098C179.253 30.1537 178.766 29.7559 178.417 29.2164C178.068 28.677 177.897 27.9959 177.902 27.1731V15.0109Z" fill="black"/>
</svg>
